# xmcd CD database file
#
# Track frame offsets:
#	150
#	24393
#	47933
#
# Disc length: 958 seconds
#
# Revision: 0
# Processed by: cddbd v1.5.1PL0 Copyright (c) Steve Scherf et al.
# Submitted via: CDex 1.50beta10
#
DISCID=1e03bc03
DTITLE=Saju - Jing Ling
DYEAR=1998
DGENRE=New Age
TTITLE0=Jing Ling
TTITLE1=Jing Ling(A.C.V.Ver.)
TTITLE2=Jing Ling(Non-vo.)
EXTD=YEAR: 1998
EXTT0=
EXTT1=
EXTT2=
PLAYORDER=
